<svg id="Layer_1" data-name="Layer 1" xmlns="http://www.w3.org/2000/svg" viewBox="0 0 874.12 505.47"><defs><style>.cls-1{fill:#fff;stroke:#231f20;stroke-miterlimit:10;}.cls-2{fill:#231f20;}.cls-3{fill:#180e11;}</style></defs><path class="cls-1" d="M403.74,284.28c15.8-8.25,31.41-5.83,46.52-3.49,14,2.17,46.55,6.18,66.27,29.07,29.34,34,28.08,92.25,3.49,129.07-41,61.37-140,64.87-184.88,34.88-11-7.35-30.72-24.73-48.84-40.69-23.32-20.56-35-30.84-38.37-36.05-6.58-10.14-12.12-22.68-25.47-27.49-3.09-1.11-8.14-2.92-14.13-1.65-9.94,2.12-11.74,10.49-20.75,11.35-6.85.66-12.32-4-14.07-5.47-8.08-6.8-10.11-18.16-8.14-26.74,3.14-13.67,16.36-19.93,20.93-22.09,20.77-9.84,43.17-1.83,51.17,1.16,46.33,17.32,46.11,55.95,89.53,90.7,32.39,25.91,91.77,52.2,130.23,27.9,25-15.8,38.75-51.45,31.4-81.39-8.05-32.79-40.89-56.7-51.16-51.16-8.06,4.33,2,24.46-9.23,34.82-12.3,11.33-45.19,6.53-53.57-11.57S385.83,293.63,403.74,284.28Z" transform="translate(130.07 -187.12)"/><rect class="cls-1" x="322.18" y="56.46" width="490.7" height="34.97"/><path class="cls-2" d="M585,279.63V462.19c0,3.21,5,3.22,5,0V279.63c0-3.22-5-3.22-5,0Z" transform="translate(130.07 -187.12)"/><path class="cls-2" d="M627,283.29c3.22,0,3.22-5,0-5s-3.22,5,0,5Z" transform="translate(130.07 -187.12)"/><path class="cls-2" d="M624.5,280.79V469.16c0,3.22,5,3.23,5,0V280.79c0-3.22-5-3.22-5,0Z" transform="translate(130.07 -187.12)"/><path class="cls-2" d="M522.35,439.1c3.22,0,3.22-5,0-5s-3.22,5,0,5Z" transform="translate(130.07 -187.12)"/><path class="cls-2" d="M523.74,436.05c2.61,6.56,8.58,10.55,15.15,12.55a86.92,86.92,0,0,0,11.34,2.29c3.73.62,7.43,1.4,11.09,2.37,14.42,3.8,28,10,42,15a154.7,154.7,0,0,0,24.15,6.89,2.56,2.56,0,0,0,3.08-1.74,2.54,2.54,0,0,0-1.75-3.08c-14.23-2.66-27.67-8.17-41.11-13.39-6.73-2.61-13.49-5.15-20.41-7.23-3.38-1-6.79-1.91-10.23-2.64-3.73-.8-7.5-1.3-11.24-2-6.48-1.21-14.58-3.6-17.28-10.39a2.58,2.58,0,0,0-3.08-1.74,2.51,2.51,0,0,0-1.74,3.07Z" transform="translate(130.07 -187.12)"/><path class="cls-2" d="M537.94,404.22a301,301,0,0,1,44.71,18.39c2.86,1.46,5.39-2.85,2.52-4.31a308,308,0,0,0-45.91-18.9c-3.07-1-4.38,3.84-1.32,4.82Z" transform="translate(130.07 -187.12)"/><path class="cls-2" d="M195,240.43c-16.15-3-32.6,1.08-46.92,8.69-13.68,7.28-26.82,18-32.27,32.92-2.65,7.28-3.33,15.57-1,23a29.77,29.77,0,0,0,12.51,16.22c5.74,3.55,14.72,5.85,20.07.45s4.38-13.24,4.11-20.07c-.14-3.63.07-7.32,2.25-10.37a15.87,15.87,0,0,1,6.76-5c6.51-2.82,14-3.34,20.92-4.37l6.8-1a2.52,2.52,0,0,0,1.75-3.08A2.55,2.55,0,0,0,187,276.1L174.09,278a96.88,96.88,0,0,0-9.71,1.77c-5.92,1.52-12,4.25-15.34,9.66a20.17,20.17,0,0,0-2.52,10.88c0,3.62.67,7.27.25,10.88-.29,2.52-1.12,5.29-3,7.09-2.16,2.11-5.43,1.81-8.18,1.11a22.77,22.77,0,0,1-13.78-10.87A27.9,27.9,0,0,1,119.05,289c3-14.57,14.3-25.2,26.51-32.67,12.77-7.82,27.72-13,42.85-11.8a49.23,49.23,0,0,1,5.28.71,2.57,2.57,0,0,0,3.08-1.75,2.52,2.52,0,0,0-1.75-3.07Z" transform="translate(130.07 -187.12)"/><path class="cls-2" d="M682.78,246.74c12.71-1.68,23-13.26,23-26.18,0-3.65-.78-7.54-3.11-10.45-1.8-2.25-5.11-3.63-6.14-6.4-.87-2.35-.07-5.07,1.39-7.12,1.78-2.5,4.74-3.69,7.67-4.23,6-1.13,13,.47,18.55,3,5.33,2.47,10.19,6.22,12.93,11.53,6.63,12.86-3.95,26.27-12.27,35.31-5.55,6-11.16,12-16.9,17.89a40.72,40.72,0,0,1-9,7.24,38.23,38.23,0,0,1-10.19,3.77,46.54,46.54,0,0,1-5.26.88,2.57,2.57,0,0,0-2.5,2.5,2.54,2.54,0,0,0,2.5,2.5c2.74,0,5.24-.91,7.77-1.84s4.78-1.79,7.15-2.73A104.42,104.42,0,0,0,712.15,266a54.74,54.74,0,0,0,20.18-20A53.69,53.69,0,0,0,738,231.29c.71-3.13-4.11-4.47-4.82-1.33a48.76,48.76,0,0,1-11.75,22.33C715.2,259,707.1,263.49,698.65,267c-2.42,1-4.88,1.93-7.34,2.85s-5.15,2.24-7.87,2.2v5c8-.87,15.79-3.21,22.21-8.16a79.47,79.47,0,0,0,9.1-8.69l9.23-9.78c10-10.54,22.44-23.47,19.68-39.31-2.33-13.44-16.12-21.72-28.7-23.53-7.24-1-15.92-.53-20.78,5.73a13.47,13.47,0,0,0-3,9.24c.34,3.71,2.38,6.24,5.18,8.52a10.66,10.66,0,0,1,3.4,3.88,13.46,13.46,0,0,1,1,4.62,20.3,20.3,0,0,1-1.58,8.93A22.41,22.41,0,0,1,687,240.62a19.07,19.07,0,0,1-4.19,1.12,2.59,2.59,0,0,0-2.5,2.5c0,1.21,1.16,2.68,2.5,2.5Z" transform="translate(130.07 -187.12)"/><path class="cls-2" d="M584.91,462.21c1.78,23.74-5.25,50.39,9.33,71.47a36.62,36.62,0,0,0,11.45,10.85,42.39,42.39,0,0,0,16.59,5.21,87.92,87.92,0,0,0,17.47,0c6.22-.49,12.59-1,18.68-2.43a49.69,49.69,0,0,0,16.88-8.16c2.42-1.7,4.77-3.48,7.11-5.29a39.8,39.8,0,0,0,6.46-5.84,20.92,20.92,0,0,0,4.26-8.1,53.58,53.58,0,0,0,1.25-9.61c.51-6.82,1-13.65,1.54-20.47.34-4.75.37-10.22-2.3-14.38a11.16,11.16,0,0,0-6.34-4.72c-3-.86-6.22-.65-9.29-.67-3.35,0-6.7-.06-10-.05-3,0-6,.47-8.3,2.64-3.75,3.6-3.64,9.33-4.76,14a40.37,40.37,0,0,1-6.68,14.39A39.75,39.75,0,0,1,643,507a23.13,23.13,0,0,1-6.12,4.31c-1.6.69-3.81,1.28-5.24.41-2-1.22-1.67-4.86-1.8-6.9l-1.35-20.57-.68-10.41a2.56,2.56,0,0,0-2.5-2.5,2.52,2.52,0,0,0-2.5,2.5l1.33,20.32.67,10.16c.19,3,.07,6.38,1.65,9,3,5,9.29,4.21,13.74,1.89,4.62-2.41,8.56-6.52,11.69-10.61a44.56,44.56,0,0,0,7.27-14.28,61.82,61.82,0,0,0,1.52-7.25c.37-2.12.73-4.64,2.13-6.37s4-1.63,6.1-1.62l9.87.06c2.62,0,5.7-.33,8.16.81a6.56,6.56,0,0,1,3.37,4.09c1.58,4.83.63,10.28.26,15.22-.49,6.54-.78,13.14-1.52,19.66a19.07,19.07,0,0,1-2.41,7.87,24,24,0,0,1-5.29,5.68,100.53,100.53,0,0,1-14.24,10.1,45,45,0,0,1-17.34,5.25c-5.73.68-11.52,1.24-17.29,1.37-10.58.23-21.66-1.44-29.6-9-7.16-6.85-10.68-16.62-12.23-26.21-2-12.51-.4-25.33-.37-37.92,0-3.27-.07-6.54-.32-9.8a2.56,2.56,0,0,0-2.5-2.5,2.53,2.53,0,0,0-2.5,2.5Z" transform="translate(130.07 -187.12)"/><path class="cls-3" d="M-127.65,692.59c3.22,0,3.22-5,0-5s-3.22,5,0,5Z" transform="translate(130.07 -187.12)"/></svg>