<svg id="Layer_1" data-name="Layer 1" xmlns="http://www.w3.org/2000/svg" viewBox="0 0 1196.49 580.02"><defs><style>.cls-1{fill:#231f20;}.cls-2{fill:none;stroke:#2f1b20;stroke-miterlimit:10;}.cls-3{fill:#2f1b20;}</style></defs><path class="cls-1" d="M1539.72,117c3.22,0,3.22-5,0-5s-3.22,5,0,5Z" transform="translate(-345.65 -112.01)"/><rect class="cls-2" x="332.44" y="185.06" width="34.88" height="338.37"/><path class="cls-3" d="M511.81,419.34c3.22,0,3.23-5,0-5s-3.22,5,0,5Z" transform="translate(-345.65 -112.01)"/><path class="cls-3" d="M674.76,328.6c-19.59,15.21-39.24,30.42-60.32,43.54s-43.17,24.31-65.2,35.62L510.57,427.6c-2.86,1.47-.33,5.79,2.53,4.32,22.77-11.69,45.65-23.18,68.26-35.18,10.94-5.81,21.78-11.82,32.36-18.28S634.6,365,644.65,357.7c11.4-8.28,22.52-16.92,33.65-25.56a2.52,2.52,0,0,0,0-3.54,2.57,2.57,0,0,0-3.54,0Z" transform="translate(-345.65 -112.01)"/><path class="cls-3" d="M675.22,585.25,605.8,530.81c-22.31-17.49-44.69-34.92-67.71-51.45-12.91-9.27-26-18.25-39.42-26.79-2.72-1.74-5.23,2.59-2.52,4.32,23.72,15.12,46.52,31.62,68.91,48.63,22.71,17.25,45.05,35,67.49,52.57l39.14,30.69a2.57,2.57,0,0,0,3.53,0,2.5,2.5,0,0,0,0-3.53Z" transform="translate(-345.65 -112.01)"/><path class="cls-3" d="M514.17,425.3a84.64,84.64,0,0,0-12.26,7.92c-3.64,2.81-7.57,5.87-10,9.81-2.31,3.69-2.69,8.28.35,11.65a8.14,8.14,0,0,0,4.61,2.59c2,.33,4.83-.25,5.74-2.31,1.07-2.4,1.19-5.63,1.08-8.21a24.93,24.93,0,0,0-1.75-8.22,2.54,2.54,0,0,0-3.67-1.49,14.57,14.57,0,0,0-7.15,15.14c.46,2.81,4.95,2.1,4.91-.66a21.76,21.76,0,0,1,17.56-21.19,2.5,2.5,0,0,0-1.33-4.82c-12.06,2.21-21.39,13.8-21.23,26l4.91-.67a9.47,9.47,0,0,1,4.85-9.5l-3.67-1.49a20.7,20.7,0,0,1,.8,13.47l.64-1.1-.23.11c-.08,0-.11.07-.53,0,.38,0-.39-.1-.42-.11-.35-.11-.11,0-.46-.21a4.15,4.15,0,0,1-1.77-2c-1-2.46,1.75-5.65,3.47-7.38a75.49,75.49,0,0,1,18.11-13.05c2.85-1.5.32-5.82-2.52-4.31Z" transform="translate(-345.65 -112.01)"/><path class="cls-3" d="M675.77,300.73c3.21,0,3.22-5,0-5s-3.23,5,0,5Z" transform="translate(-345.65 -112.01)"/><path class="cls-3" d="M675.13,294.05c-18,4.4-34.65,12.84-50.37,22.46-16.58,10.15-32.56,21.34-48.71,32.17L472.78,417.89c-7.08,4.75-14.76,9.32-19.95,16.26-5.06,6.76-6.2,15.26-3.94,23.31,2.39,8.47,7.65,15.88,13.15,22.6a265.39,265.39,0,0,0,18.48,20.47,119.78,119.78,0,0,0,21.87,17.23c7.59,4.66,15.59,8.6,23.55,12.57s16,8,23.64,12.8a256.47,256.47,0,0,1,23.22,16.93c15.22,12.17,30.47,24.24,46.36,35.55q23.58,16.77,48.35,31.75,6.19,3.74,12.45,7.37c2.79,1.61,5.31-2.7,2.53-4.32A774.49,774.49,0,0,1,588,565.94c-14.67-11.71-29-23.75-45.59-32.74-15.28-8.31-31.59-14.91-45.72-25.22-7.47-5.45-14-12.07-20.21-18.91-5.9-6.5-12-13.06-16.77-20.43-4.29-6.57-8.17-14.59-6.77-22.66s7.62-13.62,14-18.13c7.86-5.55,16-10.76,24-16.12l25.4-17,50.51-33.86c16.42-11,32.75-22.16,49.3-33,15.09-9.85,30.74-19.25,47.8-25.28a129.35,129.35,0,0,1,12.51-3.74c3.12-.76,1.8-5.59-1.33-4.82Z" transform="translate(-345.65 -112.01)"/><path class="cls-3" d="M713.8,300.48c17,8.24,34,16.57,49.38,27.59a126.5,126.5,0,0,1,36.18,39.69,151.81,151.81,0,0,1,17.66,50c3,17.32,4,36.07-1.64,53a49.74,49.74,0,0,1-12.93,21,42.84,42.84,0,0,1-19.6,10.42,30.4,30.4,0,0,1-20.78-2.31c-7.38-3.89-12.52-10.67-16.32-17.92a91.12,91.12,0,0,1-5.1-11.8c-1.44-4.09-2.48-8.54-1.48-12.56a17.58,17.58,0,0,1,3.8-7.08,41.74,41.74,0,0,1,6.86-6.14c5.55-4.1,11.57-7.62,16.68-12.29a33.07,33.07,0,0,0,6.74-8.34A34.55,34.55,0,0,0,777.12,411c1-8.88-.77-18-3.25-26.47a101.7,101.7,0,0,0-11.13-25.38c-9.58-15.36-24.47-27.75-42.39-31.73a54.64,54.64,0,0,0-13.12-1.32c-3.21.08-3.22,5.08,0,5,18.23-.43,35,9.49,46.19,23.45a85.75,85.75,0,0,1,13.13,23.76c3.11,8.38,5.59,17.33,5.83,26.31.22,8.16-1.82,16.15-7.46,22.07-4.71,4.93-10.6,8.39-16.14,12.33-5.25,3.74-10.68,8-13.31,14.09a21.23,21.23,0,0,0-1.36,12.1c.77,4.73,2.75,9.3,4.65,13.68,3.41,7.87,8,15.62,14.65,21.17a34.11,34.11,0,0,0,22.31,8c16.33-.18,31.42-10.43,39.38-24.37,9.26-16.2,10.29-35.77,8.52-53.94a165.1,165.1,0,0,0-14-52.9A130.29,130.29,0,0,0,777.44,333C763,320.34,746,310.91,728.9,302.34q-6.27-3.13-12.58-6.18a2.57,2.57,0,0,0-3.42.9,2.53,2.53,0,0,0,.9,3.42Z" transform="translate(-345.65 -112.01)"/><rect class="cls-2" x="81.28" y="155.99" width="434.88" height="30.23"/><path class="cls-3" d="M425.77,271.66c3.21,0,3.22-5,0-5s-3.23,5,0,5Z" transform="translate(-345.65 -112.01)"/><path class="cls-3" d="M425.92,269.11c-17.11,2.1-34.39,6-50.29,12.79a63.56,63.56,0,0,0-18.4,11.4c-5.54,5.11-10.36,12.16-11,19.84-.67,8.51,5.79,14.76,11.33,20.27,5.8,5.76,13,11.38,21.63,11,4.26-.19,8.72-1.71,10.17-6.1,1.15-3.49,1-7.38.66-11-.49-5.94-1.89-13.87,4.1-17.43,4.88-2.89,11.58-2.08,17.2-2.72a26.07,26.07,0,0,0,9.37-2.58c3.12-1.66,5.58-4.42,8.81-5.87a4.33,4.33,0,0,1,3.57-.19,2.51,2.51,0,0,0,3.07-1.74,2.55,2.55,0,0,0-1.74-3.08c-7.09-2.61-11.83,5-17.68,7.22-5.66,2.11-12,1.4-17.87,2.27-6.36.94-12,4.46-13.69,11-1.78,6.78.87,13.69-.1,20.52-.22,1.54-.47,3.1-2,3.82a11.17,11.17,0,0,1-4.94.91,19.29,19.29,0,0,1-10.28-3.7,59.29,59.29,0,0,1-8.76-7.85c-2.5-2.54-5.05-5.12-6.67-8.33-3.31-6.57.65-14.17,5-19.25a50,50,0,0,1,16-11.9,124.66,124.66,0,0,1,20.83-7.73A200.65,200.65,0,0,1,419.72,275c2.06-.33,4.13-.61,6.2-.87a2.57,2.57,0,0,0,2.5-2.5,2.52,2.52,0,0,0-2.5-2.5Z" transform="translate(-345.65 -112.01)"/><path class="cls-3" d="M857.81,271.45c7.21-1.16,12.65-6.87,16.1-13,3.55-6.28,6.55-14.93,1.79-21.4-3.38-4.6-9-6.63-12.66-10.61a6.26,6.26,0,0,1-1.39-2.55,4,4,0,0,1-.17-1.7,6.49,6.49,0,0,1,.59-2.16c1.48-3.17,4.61-5.54,7.47-7.4,3.16-2,6.79-3.66,10.65-3.2s7.34,2.46,10.69,4.11c5.86,2.88,12.24,6.29,15.79,12a22.49,22.49,0,0,1,3,10.88,55.21,55.21,0,0,1-.43,12.39,31.11,31.11,0,0,1-9.92,17.84c-5,4.61-11,8-17,11-7.41,3.67-15,6.94-22.55,10.36l-6.32,2.88a2.52,2.52,0,0,0-.9,3.42,2.56,2.56,0,0,0,3.42.89c8.34-3.79,16.72-7.51,25-11.39a96,96,0,0,0,18.75-10.94,38.55,38.55,0,0,0,12.8-16.76,41.79,41.79,0,0,0,2.29-13.25,50.73,50.73,0,0,0-1-13.41c-1.87-7.54-7.55-12.92-14-16.83a105.14,105.14,0,0,0-9.78-5.06c-4-1.86-8.22-3.59-12.71-3.11a24.67,24.67,0,0,0-11.6,4.84c-3.21,2.3-6.46,5.05-8.09,8.74a10.7,10.7,0,0,0,.55,10.08,21.62,21.62,0,0,0,6.28,5.88,37.41,37.41,0,0,1,6.51,5,9.65,9.65,0,0,1,2,8.78,30.82,30.82,0,0,1-4.54,10.25,21.42,21.42,0,0,1-7.18,7,14,14,0,0,1-4.65,1.56,2.52,2.52,0,0,0-1.75,3.08,2.55,2.55,0,0,0,3.07,1.74Z" transform="translate(-345.65 -112.01)"/><path class="cls-3" d="M856.82,299a56.3,56.3,0,0,0,36.1-27.49c1.54-2.82-2.77-5.35-4.32-2.52a51.33,51.33,0,0,1-33.11,25.19c-3.13.73-1.8,5.55,1.33,4.82Z" transform="translate(-345.65 -112.01)"/><path class="cls-3" d="M347.74,317.33c-4.53,7.46-1.2,16.95,5.19,22.15,7,5.68,16.61,8,25.49,7.95,2.22,0,4.74,0,6.62-1.35a6.74,6.74,0,0,0,2.6-5.12,26,26,0,0,0-.46-5.49,15.1,15.1,0,0,1,.23-5.32C389.23,322.2,396,316,402,311c7-5.82,15.46-10.89,24.87-10.29a2.52,2.52,0,0,0,2.5-2.5,2.55,2.55,0,0,0-2.5-2.5c-8.23-.53-16.08,2.82-22.74,7.42s-13,10.18-17.55,16.86a25.5,25.5,0,0,0-4.41,11.19,21.86,21.86,0,0,0,.19,5.77,14.05,14.05,0,0,1,.24,4.09c-.09.48-.18.76-.35.89a4.89,4.89,0,0,1-2.68.45,42.3,42.3,0,0,1-6.75-.26,37.28,37.28,0,0,1-11.78-3.37c-3.67-1.79-7.09-4.34-9-8a11.17,11.17,0,0,1,0-10.88c1.67-2.76-2.65-5.27-4.32-2.52Z" transform="translate(-345.65 -112.01)"/><path class="cls-3" d="M678.28,633.13,677.4,649l-.45,8.17a39.52,39.52,0,0,0,0,7.69c.62,4.62,3.29,8.45,6.35,11.82a68.34,68.34,0,0,0,10.18,9.58c7.76,5.64,17.87,5.6,27.06,5.77,8.88.17,18.44-.53,26-5.75,7.32-5.09,12.94-13,16.53-21.11a59.57,59.57,0,0,0,5.26-25.7c-.1-4.17-.19-9.44-3.54-12.45-3.06-2.75-7.41-3.25-11.34-3.61-3.62-.33-7.52-.32-10.94,1.05a11.2,11.2,0,0,0-7.09,9c-.65,3.9-1.32,7.49-3.32,11a25.57,25.57,0,0,1-12.27,10.94c-.73.3-1.49.55-2.25.78-.53.16-2.11.83-2.67.48-.18-.12-.2-.6-.23-.81a33.49,33.49,0,0,1-.2-3.62q-.16-3.88-.18-7.78c0-2.59,0-5.19.12-7.78.1-3.22-4.9-3.21-5,0-.17,5-.17,10,0,15.08.09,2.19-.06,4.68.81,6.73a5.27,5.27,0,0,0,5.35,3.17c3.76-.22,7.7-2.09,10.81-4.12a32.05,32.05,0,0,0,8.34-8,29,29,0,0,0,4.73-10.23c.77-3.27.45-7.57,3.46-9.47,2.6-1.63,6.07-1.66,9.14-1.47a38,38,0,0,1,5,.6,8.27,8.27,0,0,1,4.41,1.89c1.24,1.25,1.44,3.19,1.6,4.86a53.73,53.73,0,0,1,.24,6.22,52.74,52.74,0,0,1-1.62,12.06,53.67,53.67,0,0,1-11,21.61,32.14,32.14,0,0,1-9.95,8.32,33,33,0,0,1-11.79,3,106.56,106.56,0,0,1-13,.06c-4.44-.18-8.93-.33-13.22-1.59s-7.63-3.84-10.76-6.88c-2.92-2.84-6.07-5.78-8.21-9.27a12.57,12.57,0,0,1-1.94-5.55,55.73,55.73,0,0,1,.2-7.42l.86-15.35.42-7.68c.18-3.21-4.82-3.2-5,0Z" transform="translate(-345.65 -112.01)"/></svg>